<mxfile host="65bd71144e">
    <diagram id="C5RBs43oDa-KdzZeNtuy" name="Page-1">
        <mxGraphModel dx="788" dy="400" grid="1" gridSize="10" guides="1" tooltips="1" connect="1" arrows="1" fold="1" page="1" pageScale="1" pageWidth="827" pageHeight="1169" math="0" shadow="0">
            <root>
                <mxCell id="0"/>
                <mxCell id="1" parent="0"/>
                <mxCell id="A" value="เริ่มต้น" style="ellipse;whiteSpace=wrap;html=1;fillColor=#d5e8d4;strokeColor=#82b366;" vertex="1" parent="1">
                    <mxGeometry x="360" y="40" width="120" height="40" as="geometry"/>
                </mxCell>
                <mxCell id="B" value="เตรียมวัตถุดิบ (หั่นพริก/กระเทียม/หมูกรอบ, ปอกไข่เยี่ยวม้า)" style="rounded=0;whiteSpace=wrap;html=1;fillColor=#dae8fc;strokeColor=#6c8ebf;" vertex="1" parent="1">
                    <mxGeometry x="320" y="120" width="200" height="60" as="geometry"/>
                </mxCell>
                <mxCell id="A-B" value="" style="endArrow=classic;html=1;exitX=0.5;exitY=1;entryX=0.5;entryY=0;" edge="1" parent="1" source="A" target="B">
                    <mxGeometry width="50" height="50" relative="1" as="geometry">
                        <mxPoint x="420" y="80" as="sourcePoint"/>
                        <mxPoint x="420" y="120" as="targetPoint"/>
                    </mxGeometry>
                </mxCell>
                <mxCell id="C" value="ฟังก์ชัน: ทอดไข่เยี่ยวม้ากรอบ" style="shape=process;whiteSpace=wrap;html=1;fillColor=#e1d5e7;strokeColor=#9673a6;" vertex="1" parent="1">
                    <mxGeometry x="340" y="220" width="160" height="60" as="geometry"/>
                </mxCell>
                <mxCell id="B-C" value="" style="endArrow=classic;html=1;exitX=0.5;exitY=1;entryX=0.5;entryY=0;" edge="1" parent="1" source="B" target="C">
                    <mxGeometry width="50" height="50" relative="1" as="geometry">
                        <mxPoint x="420" y="180" as="sourcePoint"/>
                        <mxPoint x="420" y="220" as="targetPoint"/>
                    </mxGeometry>
                </mxCell>
                <mxCell id="D" value="ผสมน้ำซอสหลัก (น้ำปลา, ซีอิ๊ว, น้ำตาล, เต้าเจี้ยว)" style="rounded=0;whiteSpace=wrap;html=1;fillColor=#dae8fc;strokeColor=#6c8ebf;" vertex="1" parent="1">
                    <mxGeometry x="320" y="320" width="200" height="60" as="geometry"/>
                </mxCell>
                <mxCell id="C-D" value="" style="endArrow=classic;html=1;exitX=0.5;exitY=1;entryX=0.5;entryY=0;" edge="1" parent="1" source="C" target="D">
                    <mxGeometry width="50" height="50" relative="1" as="geometry">
                        <mxPoint x="420" y="280" as="sourcePoint"/>
                        <mxPoint x="420" y="320" as="targetPoint"/>
                    </mxGeometry>
                </mxCell>
                <mxCell id="E" value="ตั้งกระทะ ใส่น้ำมัน และเจียวพริกกระเทียม" style="rounded=0;whiteSpace=wrap;html=1;fillColor=#dae8fc;strokeColor=#6c8ebf;" vertex="1" parent="1">
                    <mxGeometry x="320" y="420" width="200" height="60" as="geometry"/>
                </mxCell>
                <mxCell id="D-E" value="" style="endArrow=classic;html=1;exitX=0.5;exitY=1;entryX=0.5;entryY=0;" edge="1" parent="1" source="D" target="E">
                    <mxGeometry width="50" height="50" relative="1" as="geometry">
                        <mxPoint x="420" y="380" as="sourcePoint"/>
                        <mxPoint x="420" y="420" as="targetPoint"/>
                    </mxGeometry>
                </mxCell>
                <mxCell id="F" value="ใส่หมูกรอบลงผัด และเติมน้ำซอส" style="rounded=0;whiteSpace=wrap;html=1;fillColor=#dae8fc;strokeColor=#6c8ebf;" vertex="1" parent="1">
                    <mxGeometry x="320" y="520" width="200" height="60" as="geometry"/>
                </mxCell>
                <mxCell id="E-F" value="" style="endArrow=classic;html=1;exitX=0.5;exitY=1;entryX=0.5;entryY=0;" edge="1" parent="1" source="E" target="F">
                    <mxGeometry width="50" height="50" relative="1" as="geometry">
                        <mxPoint x="420" y="480" as="sourcePoint"/>
                        <mxPoint x="420" y="520" as="targetPoint"/>
                    </mxGeometry>
                </mxCell>
                <mxCell id="G" value="รสชาติใช้ได้หรือไม่?" style="rhombus;whiteSpace=wrap;html=1;fillColor=#f5f5f5;strokeColor=#666666;" vertex="1" parent="1">
                    <mxGeometry x="340" y="620" width="160" height="80" as="geometry"/>
                </mxCell>
                <mxCell id="F-G" value="" style="endArrow=classic;html=1;exitX=0.5;exitY=1;entryX=0.5;entryY=0;" edge="1" parent="1" source="F" target="G">
                    <mxGeometry width="50" height="50" relative="1" as="geometry">
                        <mxPoint x="420" y="580" as="sourcePoint"/>
                        <mxPoint x="420" y="620" as="targetPoint"/>
                    </mxGeometry>
                </mxCell>
                <mxCell id="H" value="ปรับปรุง/เติมเครื่องปรุงรสเพิ่ม" style="rounded=0;whiteSpace=wrap;html=1;fillColor=#dae8fc;strokeColor=#6c8ebf;" vertex="1" parent="1">
                    <mxGeometry x="580" y="630" width="140" height="60" as="geometry"/>
                </mxCell>
                <mxCell id="G-H" value="ไม่ (False)" style="endArrow=classic;html=1;exitX=1;exitY=0.5;entryX=0;entryY=0.5;dashed=1;" edge="1" parent="1" source="G" target="H">
                    <mxGeometry width="50" height="50" relative="1" as="geometry">
                        <mxPoint x="500" y="660" as="sourcePoint"/>
                        <mxPoint x="550" y="660" as="targetPoint"/>
                    </mxGeometry>
                </mxCell>
                <mxCell id="H-F" value="" style="endArrow=classic;html=1;exitX=0.5;exitY=0;entryX=1;entryY=0.5;dashed=1;" edge="1" parent="1" source="H" target="F">
                    <mxGeometry width="50" height="50" relative="1" as="geometry">
                        <mxPoint x="650" y="630" as="sourcePoint"/>
                        <Array as="points">
                            <mxPoint x="650" y="550"/>
                            <mxPoint x="520" y="550"/>
                        </Array>
                    </mxGeometry>
                </mxCell>
                <mxCell id="I" value="เร่งไฟ ใส่ใบกะเพรา ผัดเร็วๆ จนกรอบ" style="rounded=0;whiteSpace=wrap;html=1;fillColor=#dae8fc;strokeColor=#6c8ebf;" vertex="1" parent="1">
                    <mxGeometry x="320" y="760" width="200" height="60" as="geometry"/>
                </mxCell>
                <mxCell id="G-I" value="ใช่ (True)" style="endArrow=classic;html=1;exitX=0.5;exitY=1;entryX=0.5;entryY=0;" edge="1" parent="1" source="G" target="I">
                    <mxGeometry width="50" height="50" relative="1" as="geometry">
                        <mxPoint x="420" y="700" as="sourcePoint"/>
                        <mxPoint x="420" y="760" as="targetPoint"/>
                    </mxGeometry>
                </mxCell>
                <mxCell id="J" value="ตักข้าวผัดกระเพราใส่จานข้าวสวย" style="shape=parallelogram;perimeter=parallelogramPerimeter;whiteSpace=wrap;html=1;fillColor=#fff2cc;strokeColor=#d6b656;" vertex="1" parent="1">
                    <mxGeometry x="320" y="860" width="200" height="60" as="geometry"/>
                </mxCell>
                <mxCell id="I-J" value="" style="endArrow=classic;html=1;exitX=0.5;exitY=1;entryX=0.5;entryY=0;" edge="1" parent="1" source="I" target="J">
                    <mxGeometry width="50" height="50" relative="1" as="geometry">
                        <mxPoint x="420" y="820" as="sourcePoint"/>
                        <mxPoint x="420" y="860" as="targetPoint"/>
                    </mxGeometry>
                </mxCell>
                <mxCell id="K" value="จัดวางไข่เยี่ยวม้าทอดกรอบบนจาน" style="shape=parallelogram;perimeter=parallelogramPerimeter;whiteSpace=wrap;html=1;fillColor=#fff2cc;strokeColor=#d6b656;" vertex="1" parent="1">
                    <mxGeometry x="320" y="960" width="200" height="60" as="geometry"/>
                </mxCell>
                <mxCell id="J-K" value="" style="endArrow=classic;html=1;exitX=0.5;exitY=1;entryX=0.5;entryY=0;" edge="1" parent="1" source="J" target="K">
                    <mxGeometry width="50" height="50" relative="1" as="geometry">
                        <mxPoint x="420" y="920" as="sourcePoint"/>
                        <mxPoint x="420" y="960" as="targetPoint"/>
                    </mxGeometry>
                </mxCell>
                <mxCell id="L" value="สิ้นสุด" style="ellipse;whiteSpace=wrap;html=1;fillColor=#f8cecc;strokeColor=#b85450;" vertex="1" parent="1">
                    <mxGeometry x="360" y="1060" width="120" height="40" as="geometry"/>
                </mxCell>
                <mxCell id="K-L" value="" style="endArrow=classic;html=1;exitX=0.5;exitY=1;entryX=0.5;entryY=0;" edge="1" parent="1" source="K" target="L">
                    <mxGeometry width="50" height="50" relative="1" as="geometry">
                        <mxPoint x="420" y="1020" as="sourcePoint"/>
                        <mxPoint x="420" y="1060" as="targetPoint"/>
                    </mxGeometry>
                </mxCell>
                <mxCell id="SF1A" value="เริ่มต้นฟังก์ชัน: ทอดไข่เยี่ยวม้ากรอบ" style="ellipse;whiteSpace=wrap;html=1;fillColor=#e1d5e7;strokeColor=#9673a6;" vertex="1" parent="1">
                    <mxGeometry x="750" y="40" width="180" height="40" as="geometry"/>
                </mxCell>
                <mxCell id="SF1B" value="ปอกเปลือกไข่เยี่ยวม้า หั่นครึ่ง หรือตามชอบ" style="rounded=0;whiteSpace=wrap;html=1;fillColor=#dae8fc;strokeColor=#6c8ebf;" vertex="1" parent="1">
                    <mxGeometry x="730" y="120" width="220" height="60" as="geometry"/>
                </mxCell>
                <mxCell id="SF1A-SF1B" value="" style="endArrow=classic;html=1;exitX=0.5;exitY=1;entryX=0.5;entryY=0;" edge="1" parent="1" source="SF1A" target="SF1B">
                    <mxGeometry width="50" height="50" relative="1" as="geometry">
                        <mxPoint x="840" y="80" as="sourcePoint"/>
                        <mxPoint x="840" y="120" as="targetPoint"/>
                    </mxGeometry>
                </mxCell>
                <mxCell id="SF1C" value="คลุกไข่ด้วยแป้งทอดกรอบ (บางๆ)" style="rounded=0;whiteSpace=wrap;html=1;fillColor=#dae8fc;strokeColor=#6c8ebf;" vertex="1" parent="1">
                    <mxGeometry x="730" y="220" width="220" height="60" as="geometry"/>
                </mxCell>
                <mxCell id="SF1B-SF1C" value="" style="endArrow=classic;html=1;exitX=0.5;exitY=1;entryX=0.5;entryY=0;" edge="1" parent="1" source="SF1B" target="SF1C">
                    <mxGeometry width="50" height="50" relative="1" as="geometry">
                        <mxPoint x="840" y="180" as="sourcePoint"/>
                        <mxPoint x="840" y="220" as="targetPoint"/>
                    </mxGeometry>
                </mxCell>
                <mxCell id="SF1D" value="ทอดไข่ในน้ำมันร้อนจนแป้งเหลืองกรอบ" style="rounded=0;whiteSpace=wrap;html=1;fillColor=#dae8fc;strokeColor=#6c8ebf;" vertex="1" parent="1">
                    <mxGeometry x="730" y="320" width="220" height="60" as="geometry"/>
                </mxCell>
                <mxCell id="SF1C-SF1D" value="" style="endArrow=classic;html=1;exitX=0.5;exitY=1;entryX=0.5;entryY=0;" edge="1" parent="1" source="SF1C" target="SF1D">
                    <mxGeometry width="50" height="50" relative="1" as="geometry">
                        <mxPoint x="840" y="280" as="sourcePoint"/>
                        <mxPoint x="840" y="320" as="targetPoint"/>
                    </mxGeometry>
                </mxCell>
                <mxCell id="SF1E" value="สิ้นสุดฟังก์ชัน: ส่งกลับไข่เยี่ยวม้าทอด" style="ellipse;whiteSpace=wrap;html=1;fillColor=#e1d5e7;strokeColor=#9673a6;" vertex="1" parent="1">
                    <mxGeometry x="750" y="420" width="180" height="40" as="geometry"/>
                </mxCell>
                <mxCell id="SF1D-SF1E" value="" style="endArrow=classic;html=1;exitX=0.5;exitY=1;entryX=0.5;entryY=0;" edge="1" parent="1" source="SF1D" target="SF1E">
                    <mxGeometry width="50" height="50" relative="1" as="geometry">
                        <mxPoint x="840" y="380" as="sourcePoint"/>
                        <mxPoint x="840" y="420" as="targetPoint"/>
                    </mxGeometry>
                </mxCell>
            </root>
        </mxGraphModel>
    </diagram>
</mxfile>